# xmcd
#
# Track frame offsets:
#	150
#	15680
#	43481
#	56950
#	74002
#	81768
#	95559
#	110602
#	124041
#	138048
#	147415
#	175788
#
# Disc length: 2528 seconds
#
# Revision: 4
# Processed by: cddbd v1.5.2PL0 Copyright (c) Steve Scherf et al.
# Submitted via: audiograbber 1.83.01
#
DISCID=b309de0c
DTITLE=OMD (Orchestral Manoeuvres In The Dark) - The Punishment Of Luxury (Limi
DTITLE=ted Deluxe Edition) [CD and DVD]
DYEAR=2017
DGENRE=Synthpop
TTITLE0=The Punishment Of Luxury
TTITLE1=Isotype
TTITLE2=Robot Man
TTITLE3=What Have We Done
TTITLE4=Precision and Decay
TTITLE5=As We Open, So We Close
TTITLE6=Art Eats Art
TTITLE7=Kiss Kiss Kiss Bang Bang Bang
TTITLE8=One More Time
TTITLE9=La Mitralleuse
TTITLE10=Ghost Star
TTITLE11=The View From Here
EXTD=
EXTT0=
EXTT1=
EXTT2=
EXTT3=
EXTT4=
EXTT5=
EXTT6=
EXTT7=
EXTT8=
EXTT9=
EXTT10=
EXTT11=
PLAYORDER=
